<?xml version="1.0" encoding="UTF-8" standalone="no"?>
<!-- Created with Inkscape (http://www.inkscape.org/) -->

<svg
   xmlns:dc="http://purl.org/dc/elements/1.1/"
   xmlns:cc="http://creativecommons.org/ns#"
   xmlns:rdf="http://www.w3.org/1999/02/22-rdf-syntax-ns#"
   xmlns:svg="http://www.w3.org/2000/svg"
   xmlns="http://www.w3.org/2000/svg"
   xmlns:sodipodi="http://sodipodi.sourceforge.net/DTD/sodipodi-0.dtd"
   xmlns:inkscape="http://www.inkscape.org/namespaces/inkscape"
   width="90"
   height="380"
   viewBox="0 0 23.812501 100.54167"
   version="1.1"
   id="svg8"
   inkscape:version="0.92.2 5c3e80d, 2017-08-06"
   sodipodi:docname="MorphOsc.svg">
  <defs
     id="defs2" />
  <sodipodi:namedview
     id="base"
     pagecolor="#ffffff"
     bordercolor="#666666"
     borderopacity="1.0"
     inkscape:pageopacity="0.0"
     inkscape:pageshadow="2"
     inkscape:zoom="1.4289472"
     inkscape:cx="-132.40333"
     inkscape:cy="162.00733"
     inkscape:document-units="mm"
     inkscape:current-layer="layer1"
     showgrid="false"
     units="px"
     inkscape:snap-bbox="true"
     inkscape:snap-page="true"
     inkscape:bbox-nodes="true"
     inkscape:snap-bbox-edge-midpoints="true"
     inkscape:window-width="1280"
     inkscape:window-height="756"
     inkscape:window-x="33"
     inkscape:window-y="0"
     inkscape:window-maximized="0" />
  <metadata
     id="metadata5">
    <rdf:RDF>
      <cc:Work
         rdf:about="">
        <dc:format>image/svg+xml</dc:format>
        <dc:type
           rdf:resource="http://purl.org/dc/dcmitype/StillImage" />
        <dc:title />
      </cc:Work>
    </rdf:RDF>
  </metadata>
  <g
     inkscape:label="Layer 1"
     inkscape:groupmode="layer"
     id="layer1"
     transform="translate(0,-196.45832)">
    <path
       style="opacity:1;vector-effect:none;fill:#f0f0f0;fill-opacity:1;fill-rule:evenodd;stroke:none;stroke-width:0.48607069;stroke-linecap:butt;stroke-linejoin:round;stroke-miterlimit:4;stroke-dasharray:none;stroke-dashoffset:0;stroke-opacity:1;paint-order:normal"
       d="M 0,196.45832 H 23.8125 V 297 H 0 Z"
       id="rect817"
       inkscape:connector-curvature="0" />
    <g
       aria-label="Jaffasplaffa"
       transform="matrix(0.85419485,0,0,1.1706931,0.14826251,86.389688)"
       style="font-style:normal;font-weight:normal;font-size:3.01340961px;line-height:1.25;font-family:sans-serif;letter-spacing:0px;word-spacing:0px;fill:#333333;fill-opacity:1;stroke:none;stroke-width:0.22600572"
       id="text840">
      <path
         d="m 6.0782485,172.71995 h 0.2972211 v 2.04376 q 0,0.39727 -0.1515533,0.57678 Q 6.0738343,175.52 5.7398285,175.52 H 5.6265313 v -0.25013 h 0.092698 q 0.1971665,0 0.278093,-0.11036 0.080927,-0.11035 0.080927,-0.3958 z"
         style="fill:#333333;stroke-width:0.22600572"
         id="path842"
         inkscape:connector-curvature="0" />
      <path
         d="m 7.704136,174.08834 q -0.3281203,0 -0.4546599,0.075 -0.1265397,0.075 -0.1265397,0.25602 0,0.1442 0.094169,0.22954 0.095641,0.0839 0.2589649,0.0839 0.2251229,0 0.3604909,-0.15891 0.1368394,-0.16038 0.1368394,-0.42523 v -0.0603 z m 0.5400007,-0.11183 v 0.94022 H 7.9734006 v -0.25013 q -0.092698,0.15008 -0.2310084,0.22218 -0.1383108,0.0706 -0.33842,0.0706 -0.2530794,0 -0.4031613,-0.14125 -0.1486105,-0.14273 -0.1486105,-0.38109 0,-0.27809 0.1853953,-0.41935 0.1868667,-0.14125 0.5561859,-0.14125 h 0.379619 v -0.0265 q 0,-0.18686 -0.1235968,-0.28839 -0.1221255,-0.103 -0.3443056,-0.103 -0.1412536,0 -0.2751502,0.0339 -0.1338967,0.0338 -0.2574935,0.10152 v -0.25013 q 0.1486105,-0.0574 0.2883927,-0.0854 0.1397822,-0.0294 0.2722074,-0.0294 0.3575481,0 0.5341151,0.18539 0.176567,0.1854 0.176567,0.56207 z"
         style="fill:#333333;stroke-width:0.22600572"
         id="path844"
         inkscape:connector-curvature="0" />
      <path
         d="m 9.6375443,172.62725 v 0.22512 H 9.3785795 q -0.1456678,0 -0.2030521,0.0589 -0.055913,0.0589 -0.055913,0.21188 v 0.14566 H 9.565446 v 0.21041 H 9.1196146 v 1.43755 H 8.8474072 v -1.43755 H 8.5884423 v -0.21041 h 0.2589649 v -0.11476 q 0,-0.27515 0.128011,-0.40022 0.1280111,-0.12654 0.406104,-0.12654 z"
         style="fill:#333333;stroke-width:0.22600572"
         id="path846"
         inkscape:connector-curvature="0" />
      <path
         d="m 10.696946,172.62725 v 0.22512 h -0.258965 q -0.145668,0 -0.203052,0.0589 -0.05591,0.0589 -0.05591,0.21188 v 0.14566 h 0.445832 v 0.21041 h -0.445832 v 1.43755 H 9.9068089 v -1.43755 H 9.647844 v -0.21041 h 0.2589649 v -0.11476 q 0,-0.27515 0.1280111,-0.40022 0.128011,-0.12654 0.406104,-0.12654 z"
         style="fill:#333333;stroke-width:0.22600572"
         id="path848"
         inkscape:connector-curvature="0" />
      <path
         d="m 11.671007,174.08834 q -0.32812,0 -0.45466,0.075 -0.126539,0.075 -0.126539,0.25602 0,0.1442 0.09417,0.22954 0.09564,0.0839 0.258965,0.0839 0.225123,0 0.360491,-0.15891 0.136839,-0.16038 0.136839,-0.42523 v -0.0603 z m 0.540001,-0.11183 v 0.94022 h -0.270736 v -0.25013 q -0.0927,0.15008 -0.231008,0.22218 -0.138311,0.0706 -0.33842,0.0706 -0.25308,0 -0.403162,-0.14125 -0.14861,-0.14273 -0.14861,-0.38109 0,-0.27809 0.185395,-0.41935 0.186867,-0.14125 0.556186,-0.14125 h 0.379619 v -0.0265 q 0,-0.18686 -0.123597,-0.28839 -0.122125,-0.103 -0.344305,-0.103 -0.141254,0 -0.275151,0.0339 -0.133896,0.0338 -0.257493,0.10152 v -0.25013 q 0.14861,-0.0574 0.288393,-0.0854 0.139782,-0.0294 0.272207,-0.0294 0.357548,0 0.534115,0.18539 0.176567,0.1854 0.176567,0.56207 z"
         style="fill:#333333;stroke-width:0.22600572"
         id="path850"
         inkscape:connector-curvature="0" />
      <path
         d="m 13.82071,173.31733 v 0.25602 q -0.114768,-0.0589 -0.238365,-0.0883 -0.123597,-0.0294 -0.256022,-0.0294 -0.201581,0 -0.303107,0.0618 -0.100054,0.0618 -0.100054,0.18539 0,0.0942 0.0721,0.14862 0.0721,0.053 0.289864,0.10152 l 0.0927,0.0206 q 0.288392,0.0618 0.409046,0.1751 0.122126,0.11182 0.122126,0.3134 0,0.22954 -0.182453,0.36344 -0.180981,0.13389 -0.498801,0.13389 -0.132426,0 -0.276622,-0.0265 -0.142725,-0.025 -0.301635,-0.0765 v -0.27957 q 0.150082,0.078 0.295749,0.11771 0.145668,0.0383 0.288393,0.0383 0.191281,0 0.294278,-0.0647 0.102998,-0.0662 0.102998,-0.1854 0,-0.11035 -0.07504,-0.16921 -0.07357,-0.0588 -0.325178,-0.11329 l -0.09417,-0.0221 q -0.251608,-0.053 -0.363433,-0.16185 -0.111826,-0.11035 -0.111826,-0.30163 0,-0.23248 0.164796,-0.35902 0.164796,-0.12654 0.467902,-0.12654 0.150082,0 0.282507,0.0221 0.132426,0.0221 0.244251,0.0662 z"
         style="fill:#333333;stroke-width:0.22600572"
         id="path852"
         inkscape:connector-curvature="0" />
      <path
         d="m 14.603491,174.66954 v 0.87401 h -0.272208 v -2.27478 h 0.272208 v 0.25014 q 0.08534,-0.14714 0.214823,-0.21776 0.130954,-0.0721 0.311935,-0.0721 0.300164,0 0.48703,0.23836 0.188338,0.23837 0.188338,0.62681 0,0.38845 -0.188338,0.62682 -0.186866,0.23836 -0.48703,0.23836 -0.180981,0 -0.311935,-0.0706 -0.129483,-0.0721 -0.214823,-0.21924 z m 0.921091,-0.57532 q 0,-0.29869 -0.123597,-0.4679 -0.122126,-0.17068 -0.336949,-0.17068 -0.214823,0 -0.33842,0.17068 -0.122125,0.16921 -0.122125,0.4679 0,0.2987 0.122125,0.46938 0.123597,0.16921 0.33842,0.16921 0.214823,0 0.336949,-0.16921 0.123597,-0.17068 0.123597,-0.46938 z"
         style="fill:#333333;stroke-width:0.22600572"
         id="path854"
         inkscape:connector-curvature="0" />
      <path
         d="m 16.254391,172.62725 h 0.270736 v 2.28948 h -0.270736 z"
         style="fill:#333333;stroke-width:0.22600572"
         id="path856"
         inkscape:connector-curvature="0" />
      <path
         d="m 17.83908,174.08834 q -0.32812,0 -0.45466,0.075 -0.12654,0.075 -0.12654,0.25602 0,0.1442 0.09417,0.22954 0.09564,0.0839 0.258964,0.0839 0.225123,0 0.360491,-0.15891 0.13684,-0.16038 0.13684,-0.42523 v -0.0603 z m 0.540001,-0.11183 v 0.94022 h -0.270736 v -0.25013 q -0.0927,0.15008 -0.231009,0.22218 -0.138311,0.0706 -0.33842,0.0706 -0.253079,0 -0.403161,-0.14125 -0.148611,-0.14273 -0.148611,-0.38109 0,-0.27809 0.185396,-0.41935 0.186866,-0.14125 0.556186,-0.14125 h 0.379619 v -0.0265 q 0,-0.18686 -0.123597,-0.28839 -0.122126,-0.103 -0.344306,-0.103 -0.141253,0 -0.27515,0.0339 -0.133897,0.0338 -0.257493,0.10152 v -0.25013 q 0.14861,-0.0574 0.288392,-0.0854 0.139782,-0.0294 0.272208,-0.0294 0.357548,0 0.534115,0.18539 0.176567,0.1854 0.176567,0.56207 z"
         style="fill:#333333;stroke-width:0.22600572"
         id="path858"
         inkscape:connector-curvature="0" />
      <path
         d="m 19.772489,172.62725 v 0.22512 h -0.258965 q -0.145668,0 -0.203052,0.0589 -0.05591,0.0589 -0.05591,0.21188 v 0.14566 h 0.445832 v 0.21041 h -0.445832 v 1.43755 h -0.272207 v -1.43755 H 18.72339 v -0.21041 h 0.258965 v -0.11476 q 0,-0.27515 0.128011,-0.40022 0.128011,-0.12654 0.406104,-0.12654 z"
         style="fill:#333333;stroke-width:0.22600572"
         id="path860"
         inkscape:connector-curvature="0" />
      <path
         d="m 20.831891,172.62725 v 0.22512 h -0.258965 q -0.145668,0 -0.203052,0.0589 -0.05591,0.0589 -0.05591,0.21188 v 0.14566 h 0.445831 v 0.21041 h -0.445831 v 1.43755 h -0.272208 v -1.43755 h -0.258965 v -0.21041 h 0.258965 v -0.11476 q 0,-0.27515 0.128011,-0.40022 0.128011,-0.12654 0.406104,-0.12654 z"
         style="fill:#333333;stroke-width:0.22600572"
         id="path862"
         inkscape:connector-curvature="0" />
      <path
         d="m 21.805951,174.08834 q -0.32812,0 -0.45466,0.075 -0.126539,0.075 -0.126539,0.25602 0,0.1442 0.09417,0.22954 0.09564,0.0839 0.258965,0.0839 0.225123,0 0.360491,-0.15891 0.136839,-0.16038 0.136839,-0.42523 v -0.0603 z m 0.540001,-0.11183 v 0.94022 h -0.270736 v -0.25013 q -0.0927,0.15008 -0.231008,0.22218 -0.138311,0.0706 -0.338421,0.0706 -0.253079,0 -0.403161,-0.14125 -0.14861,-0.14273 -0.14861,-0.38109 0,-0.27809 0.185395,-0.41935 0.186867,-0.14125 0.556186,-0.14125 h 0.379619 v -0.0265 q 0,-0.18686 -0.123597,-0.28839 -0.122125,-0.103 -0.344305,-0.103 -0.141254,0 -0.275151,0.0339 -0.133896,0.0338 -0.257493,0.10152 v -0.25013 q 0.14861,-0.0574 0.288393,-0.0854 0.139782,-0.0294 0.272207,-0.0294 0.357548,0 0.534115,0.18539 0.176567,0.1854 0.176567,0.56207 z"
         style="fill:#333333;stroke-width:0.22600572"
         id="path864"
         inkscape:connector-curvature="0" />
    </g>
    <g
       aria-label="MorphOsc"
       transform="scale(0.93143694,1.07361)"
       style="font-style:normal;font-weight:normal;font-size:3.2859025px;line-height:1.25;font-family:sans-serif;letter-spacing:0px;word-spacing:0px;fill:#333333;fill-opacity:1;stroke:none;stroke-width:0.24644269"
       id="text852">
      <path
         d="m 4.5414618,187.63432 h 0.4829378 l 0.6112934,1.63011 0.6145022,-1.63011 H 6.733133 v 2.39543 H 6.4170575 v -2.10342 l -0.6177112,1.64295 H 5.4736441 l -0.6177112,-1.64295 v 2.10342 H 4.5414618 Z"
         style="fill:#333333;stroke-width:0.24644269"
         id="path843" />
      <path
         d="m 8.0616131,188.43975 q -0.2374578,0 -0.37544,0.18612 -0.1379822,0.18451 -0.1379822,0.507 0,0.32249 0.1363778,0.50861 0.1379822,0.18451 0.3770444,0.18451 0.2358534,0 0.3738356,-0.18612 0.1379823,-0.18611 0.1379823,-0.507 0,-0.31928 -0.1379823,-0.5054 -0.1379822,-0.18772 -0.3738356,-0.18772 z m 0,-0.25029 q 0.3850667,0 0.6048757,0.25029 0.2198089,0.25029 0.2198089,0.69312 0,0.44122 -0.2198089,0.69312 -0.219809,0.25029 -0.6048757,0.25029 -0.3866711,0 -0.60648,-0.25029 -0.2182045,-0.2519 -0.2182045,-0.69312 0,-0.44283 0.2182045,-0.69312 0.2198089,-0.25029 0.60648,-0.25029 z"
         style="fill:#333333;stroke-width:0.24644269"
         id="path845" />
      <path
         d="m 10.415333,188.50874 q -0.04974,-0.0289 -0.109102,-0.0417 -0.05776,-0.0144 -0.128355,-0.0144 -0.2502937,0 -0.385067,0.16365 -0.1331689,0.16205 -0.1331689,0.46689 v 0.94662 H 9.3628178 v -1.79697 h 0.2968223 v 0.27917 q 0.093058,-0.16365 0.2422711,-0.24227 0.1492138,-0.0802 0.3626048,-0.0802 0.03048,0 0.06739,0.005 0.0369,0.003 0.08183,0.0112 z"
         style="fill:#333333;stroke-width:0.24644269"
         id="path847" />
      <path
         d="m 11.013791,189.76021 v 0.95304 h -0.296822 v -2.48047 h 0.296822 v 0.27275 q 0.09306,-0.16044 0.234249,-0.23746 0.142795,-0.0786 0.340142,-0.0786 0.327307,0 0.531071,0.25992 0.205369,0.25992 0.205369,0.68349 0,0.42357 -0.205369,0.68349 -0.203764,0.25992 -0.531071,0.25992 -0.197347,0 -0.340142,-0.077 -0.141191,-0.0786 -0.234249,-0.23906 z m 1.004382,-0.62734 q 0,-0.3257 -0.134773,-0.51021 -0.133169,-0.18612 -0.367418,-0.18612 -0.234249,0 -0.369022,0.18612 -0.133169,0.18451 -0.133169,0.51021 0,0.3257 0.133169,0.51182 0.134773,0.18451 0.369022,0.18451 0.234249,0 0.367418,-0.18451 0.134773,-0.18612 0.134773,-0.51182 z"
         style="fill:#333333;stroke-width:0.24644269"
         id="path849" />
      <path
         d="m 14.307716,188.94515 v 1.0846 h -0.295218 v -1.07497 q 0,-0.25511 -0.09948,-0.38186 -0.09947,-0.12675 -0.298426,-0.12675 -0.239062,0 -0.377045,0.15242 -0.137982,0.15242 -0.137982,0.41555 v 1.01561 h -0.296822 v -2.49651 h 0.296822 v 0.97871 q 0.105893,-0.16205 0.248689,-0.24227 0.1444,-0.0802 0.33212,-0.0802 0.309658,0 0.468498,0.19253 0.15884,0.19093 0.15884,0.56316 z"
         style="fill:#333333;stroke-width:0.24644269"
         id="path851" />
      <path
         d="m 15.884885,187.85413 q -0.352978,0 -0.561555,0.26313 -0.206974,0.26313 -0.206974,0.71718 0,0.45246 0.206974,0.71559 0.208577,0.26312 0.561555,0.26312 0.352978,0 0.558347,-0.26312 0.206973,-0.26313 0.206973,-0.71559 0,-0.45405 -0.206973,-0.71718 -0.205369,-0.26313 -0.558347,-0.26313 z m 0,-0.26313 q 0.503796,0 0.805431,0.33854 0.301636,0.33693 0.301636,0.9049 0,0.56637 -0.301636,0.90491 -0.301635,0.33693 -0.805431,0.33693 -0.5054,0 -0.80864,-0.33693 -0.301635,-0.33693 -0.301635,-0.90491 0,-0.56797 0.301635,-0.9049 0.30324,-0.33854 0.80864,-0.33854 z"
         style="fill:#333333;stroke-width:0.24644269"
         id="path853" />
      <path
         d="m 18.631694,188.28572 v 0.27918 q -0.125146,-0.0642 -0.25992,-0.0963 -0.134773,-0.0321 -0.279173,-0.0321 -0.219809,0 -0.330516,0.0674 -0.109102,0.0674 -0.109102,0.20216 0,0.10268 0.07862,0.16205 0.07862,0.0578 0.316076,0.1107 l 0.10108,0.0225 q 0.314471,0.0674 0.446035,0.19092 0.133169,0.12194 0.133169,0.34175 0,0.25029 -0.198951,0.3963 -0.197347,0.146 -0.543907,0.146 -0.1444,0 -0.301635,-0.0289 -0.155632,-0.0273 -0.328912,-0.0834 v -0.30484 q 0.163654,0.085 0.322494,0.12835 0.15884,0.0417 0.314471,0.0417 0.208578,0 0.320889,-0.0706 0.112311,-0.0722 0.112311,-0.20216 0,-0.12033 -0.08183,-0.18451 -0.08022,-0.0642 -0.354582,-0.12354 l -0.102684,-0.0241 q -0.27436,-0.0578 -0.396298,-0.17649 -0.121938,-0.12033 -0.121938,-0.32891 0,-0.2535 0.179698,-0.39148 0.179698,-0.13798 0.510213,-0.13798 0.163654,0 0.308054,0.0241 0.1444,0.0241 0.266337,0.0722 z"
         style="fill:#333333;stroke-width:0.24644269"
         id="path855" />
      <path
         d="m 20.49285,188.30177 v 0.27596 q -0.125147,-0.069 -0.251898,-0.10268 -0.125146,-0.0353 -0.253502,-0.0353 -0.287196,0 -0.446036,0.18291 -0.15884,0.1813 -0.15884,0.51021 0,0.32891 0.15884,0.51182 0.15884,0.1813 0.446036,0.1813 0.128356,0 0.253502,-0.0337 0.126751,-0.0353 0.251898,-0.10429 v 0.27275 q -0.123542,0.0578 -0.256711,0.0866 -0.131565,0.0289 -0.280778,0.0289 -0.405924,0 -0.644987,-0.2551 -0.239062,-0.25511 -0.239062,-0.68831 0,-0.43962 0.240667,-0.69152 0.242271,-0.25189 0.662635,-0.25189 0.136378,0 0.266338,0.0289 0.12996,0.0273 0.251898,0.0834 z"
         style="fill:#333333;stroke-width:0.24644269"
         id="path857" />
    </g>
    <path
       sodipodi:type="spiral"
       style="fill:none;fill-rule:evenodd;stroke:#000000;stroke-width:0.26458332"
       id="path866"
       sodipodi:cx="8.8394985"
       sodipodi:cy="276.81543"
       sodipodi:expansion="1"
       sodipodi:revolution="3"
       sodipodi:radius="11.001038"
       sodipodi:argument="-18.087963"
       sodipodi:t0="0.00188982"
       d="m 8.8540245,276.8303 c 0.3745182,0.41184 -0.3693762,0.71763 -0.6852566,0.64019 -0.8585013,-0.21046 -0.9824726,-1.31489 -0.6248695,-1.98165 0.6353116,-1.18454 2.2394021,-1.30443 3.2780446,-0.60955 1.51983,1.01681 1.635866,3.17617 0.59423,4.57444 -1.386088,1.86066 -4.1173303,1.97138 -5.8708336,0.57891 -2.2043174,-1.75047 -2.3090149,-5.0606 -0.5635892,-7.16723 2.1124216,-2.54957 6.0050558,-2.64787 8.4636218,-0.54827 2.8958,2.47301 2.987514,6.95026 0.532949,9.76002 -2.832743,3.24266 -7.8959559,3.32767 -11.0564102,0.51763 -3.58995703,-3.19192 -3.6681813,-8.842 -0.5023087,-12.35281 3.5507072,-3.93756 9.7883069,-4.00895 13.6491989,-0.48698 4.173026,3.8067 4.363692,10.41535 0.732564,14.65197"
       transform="matrix(0.69362868,-0.86607252,-0.81798412,-0.78242486,231.38276,508.14944)" />
    <g
       aria-label="Pitch"
       style="font-style:normal;font-weight:normal;font-size:3.52777767px;line-height:1.25;font-family:sans-serif;letter-spacing:0px;word-spacing:0px;fill:#000000;fill-opacity:1;stroke:none;stroke-width:0.26458332"
       id="text860"
       transform="translate(0,-2.6458334)">
      <path
         d="m 9.6744933,208.78862 v 0.57981 h 0.2625163 q 0.1457274,0 0.2253094,-0.0754 0.07958,-0.0754 0.07958,-0.21497 0,-0.1385 -0.07958,-0.21394 -0.07958,-0.0754 -0.2253094,-0.0754 z m -0.2087728,-0.17157 h 0.4712891 q 0.2594154,0 0.3917074,0.11782 0.133325,0.11679 0.133325,0.34314 0,0.22841 -0.133325,0.34519 -0.132292,0.11679 -0.3917074,0.11679 H 9.6744933 v 0.62012 H 9.4657205 Z"
         style="font-size:2.11666656px;stroke-width:0.26458332"
         id="path868"
         inkscape:connector-curvature="0" />
      <path
         d="m 10.691485,209.00256 h 0.19017 v 1.15755 h -0.19017 z m 0,-0.45062 h 0.19017 v 0.24081 h -0.19017 z"
         style="font-size:2.11666656px;stroke-width:0.26458332"
         id="path870"
         inkscape:connector-curvature="0" />
      <path
         d="m 11.468699,208.6739 v 0.32866 h 0.391707 v 0.14779 h -0.391707 v 0.62839 q 0,0.14159 0.03824,0.1819 0.03927,0.0403 0.158129,0.0403 h 0.195337 v 0.15916 h -0.195337 q -0.220141,0 -0.303857,-0.0816 -0.08372,-0.0827 -0.08372,-0.29972 v -0.62839 H 11.13797 v -0.14779 h 0.139526 v -0.32866 z"
         style="font-size:2.11666656px;stroke-width:0.26458332"
         id="path872"
         inkscape:connector-curvature="0" />
      <path
         d="m 12.944578,209.047 v 0.17777 q -0.08061,-0.0444 -0.162264,-0.0661 -0.08061,-0.0227 -0.163298,-0.0227 -0.185001,0 -0.287321,0.11783 -0.102319,0.11678 -0.102319,0.32866 0,0.21187 0.102319,0.32969 0.10232,0.11679 0.287321,0.11679 0.08268,0 0.163298,-0.0217 0.08165,-0.0227 0.162264,-0.0672 v 0.1757 q -0.07958,0.0372 -0.165365,0.0558 -0.08475,0.0186 -0.180867,0.0186 -0.261483,0 -0.415479,-0.16433 -0.153996,-0.16433 -0.153996,-0.44338 0,-0.28319 0.15503,-0.44545 0.156063,-0.16227 0.426847,-0.16227 0.08785,0 0.171566,0.0186 0.08372,0.0176 0.162264,0.0537 z"
         style="font-size:2.11666656px;stroke-width:0.26458332"
         id="path874"
         inkscape:connector-curvature="0" />
      <path
         d="m 14.239589,209.46145 v 0.69866 H 14.04942 v -0.69246 q 0,-0.16433 -0.06408,-0.24598 -0.06408,-0.0816 -0.192236,-0.0816 -0.153996,0 -0.24288,0.0982 -0.08888,0.0982 -0.08888,0.26769 v 0.65422 h -0.191203 v -1.60817 h 0.191203 v 0.63045 q 0.06821,-0.10438 0.160197,-0.15606 0.09302,-0.0517 0.21394,-0.0517 0.199471,0 0.301791,0.12403 0.102319,0.12299 0.102319,0.36277 z"
         style="font-size:2.11666656px;stroke-width:0.26458332"
         id="path877"
         inkscape:connector-curvature="0" />
    </g>
    <g
       aria-label="Phaserst"
       style="font-style:normal;font-weight:normal;font-size:3.52777767px;line-height:1.25;font-family:sans-serif;letter-spacing:0px;word-spacing:0px;fill:#000000;fill-opacity:1;stroke:none;stroke-width:0.26458332"
       id="text864"
       transform="translate(0,-4.2333333)">
      <path
         d="m 8.1669049,274.53296 v 0.57981 h 0.2625163 q 0.1457275,0 0.2253092,-0.0754 0.079582,-0.0755 0.079582,-0.21497 0,-0.1385 -0.079582,-0.21395 -0.079582,-0.0754 -0.2253092,-0.0754 z m -0.2087727,-0.17157 h 0.471289 q 0.2594157,0 0.3917073,0.11782 0.1333252,0.11679 0.1333252,0.34314 0,0.2284 -0.1333252,0.34519 -0.1322916,0.11679 -0.3917073,0.11679 H 8.1669049 v 0.62012 H 7.9581322 Z"
         style="font-size:2.11666656px;stroke-width:0.26458332"
         id="path876"
         inkscape:connector-curvature="0" />
      <path
         d="m 10.18952,275.20578 v 0.69867 H 9.9993512 v -0.69246 q 0,-0.16434 -0.064079,-0.24598 -0.064079,-0.0816 -0.1922363,-0.0816 -0.1539958,0 -0.2428792,0.0982 -0.088883,0.0982 -0.088883,0.26769 v 0.65422 H 9.2200706 v -1.60817 h 0.1912028 v 0.63045 q 0.068213,-0.10438 0.1601969,-0.15606 0.093018,-0.0517 0.2139405,-0.0517 0.199471,0 0.3017902,0.12403 0.102319,0.12299 0.102319,0.36276 z"
         style="font-size:2.11666656px;stroke-width:0.26458332"
         id="path878"
         inkscape:connector-curvature="0" />
      <path
         d="m 11.096958,275.32257 q -0.230476,0 -0.31936,0.0527 -0.08888,0.0527 -0.08888,0.17984 0,0.10128 0.06615,0.16123 0.06718,0.0589 0.181901,0.0589 0.15813,0 0.253215,-0.11162 0.09612,-0.11266 0.09612,-0.29869 v -0.0424 z m 0.379305,-0.0786 v 0.66043 h -0.190169 v -0.1757 q -0.06511,0.10542 -0.162264,0.15606 -0.09715,0.0496 -0.237711,0.0496 -0.177767,0 -0.283187,-0.0992 -0.104387,-0.10025 -0.104387,-0.26768 0,-0.19534 0.130225,-0.29456 0.131258,-0.0992 0.390674,-0.0992 h 0.26665 v -0.0186 q 0,-0.13126 -0.08682,-0.20257 -0.08578,-0.0723 -0.241846,-0.0723 -0.09922,0 -0.19327,0.0238 -0.09405,0.0238 -0.180867,0.0713 v -0.1757 q 0.104386,-0.0403 0.202571,-0.0599 0.09819,-0.0207 0.191203,-0.0207 0.251148,0 0.375171,0.13023 0.124023,0.13022 0.124023,0.3948 z"
         style="font-size:2.11666656px;stroke-width:0.26458332"
         id="path880"
         inkscape:connector-curvature="0" />
      <path
         d="m 12.606944,274.781 v 0.17984 q -0.08062,-0.0413 -0.167432,-0.062 -0.08682,-0.0207 -0.179834,-0.0207 -0.141593,0 -0.212907,0.0434 -0.07028,0.0434 -0.07028,0.13023 0,0.0661 0.05064,0.10438 0.05064,0.0372 0.203605,0.0713 l 0.06511,0.0145 q 0.202571,0.0434 0.287321,0.12299 0.08578,0.0785 0.08578,0.22014 0,0.16123 -0.128157,0.25528 -0.127124,0.094 -0.350366,0.094 -0.09302,0 -0.194304,-0.0186 -0.100252,-0.0176 -0.211873,-0.0537 v -0.19637 q 0.10542,0.0548 0.207739,0.0827 0.10232,0.0269 0.202572,0.0269 0.134358,0 0.206705,-0.0455 0.07235,-0.0465 0.07235,-0.13022 0,-0.0775 -0.05271,-0.11886 -0.05168,-0.0413 -0.22841,-0.0796 l -0.06615,-0.0155 q -0.176733,-0.0372 -0.255282,-0.11369 -0.07855,-0.0775 -0.07855,-0.21187 0,-0.1633 0.115755,-0.25218 0.115756,-0.0889 0.328662,-0.0889 0.10542,0 0.198438,0.0155 0.09302,0.0155 0.171566,0.0465 z"
         style="font-size:2.11666656px;stroke-width:0.26458332"
         id="path882"
         inkscape:connector-curvature="0" />
      <path
         d="m 13.962934,275.27813 v 0.093 h -0.874366 q 0.0124,0.19637 0.117823,0.29972 0.106453,0.10232 0.295589,0.10232 0.109554,0 0.211873,-0.0269 0.103353,-0.0269 0.204639,-0.0806 v 0.17984 q -0.10232,0.0434 -0.209806,0.0661 -0.107487,0.0227 -0.218075,0.0227 -0.276986,0 -0.43925,-0.16123 -0.16123,-0.16123 -0.16123,-0.43615 0,-0.28422 0.152962,-0.45062 0.153996,-0.16743 0.414445,-0.16743 0.233578,0 0.36897,0.1509 0.136426,0.14986 0.136426,0.40824 z m -0.19017,-0.0558 q -0.0021,-0.15606 -0.08785,-0.24908 -0.08475,-0.093 -0.225309,-0.093 -0.159163,0 -0.255281,0.0899 -0.09508,0.0899 -0.109554,0.25321 z"
         style="font-size:2.11666656px;stroke-width:0.26458332"
         id="path884"
         inkscape:connector-curvature="0" />
      <path
         d="m 14.945819,274.92466 q -0.03204,-0.0186 -0.07028,-0.0269 -0.03721,-0.009 -0.08268,-0.009 -0.161231,0 -0.248047,0.10542 -0.08578,0.10439 -0.08578,0.30076 v 0.60978 h -0.191203 v -1.15755 h 0.191203 v 0.17983 q 0.05994,-0.10542 0.156063,-0.15606 0.09612,-0.0517 0.233577,-0.0517 0.01964,0 0.04341,0.003 0.02377,0.002 0.05271,0.007 z"
         style="font-size:2.11666656px;stroke-width:0.26458332"
         id="path886"
         inkscape:connector-curvature="0" />
      <path
         d="m 15.885296,274.781 v 0.17984 q -0.08061,-0.0413 -0.167431,-0.062 -0.08682,-0.0207 -0.179834,-0.0207 -0.141594,0 -0.212907,0.0434 -0.07028,0.0434 -0.07028,0.13023 0,0.0661 0.05064,0.10438 0.05064,0.0372 0.203605,0.0713 l 0.06511,0.0145 q 0.202572,0.0434 0.287321,0.12299 0.08578,0.0785 0.08578,0.22014 0,0.16123 -0.128157,0.25528 -0.127124,0.094 -0.350367,0.094 -0.09302,0 -0.194303,-0.0186 -0.100252,-0.0176 -0.211873,-0.0537 v -0.19637 q 0.10542,0.0548 0.207739,0.0827 0.102319,0.0269 0.202572,0.0269 0.134358,0 0.206705,-0.0455 0.07235,-0.0465 0.07235,-0.13022 0,-0.0775 -0.05271,-0.11886 -0.05168,-0.0413 -0.22841,-0.0796 l -0.06615,-0.0155 q -0.176734,-0.0372 -0.255282,-0.11369 -0.07855,-0.0775 -0.07855,-0.21187 0,-0.1633 0.115755,-0.25218 0.115755,-0.0889 0.328662,-0.0889 0.10542,0 0.198438,0.0155 0.09302,0.0155 0.171565,0.0465 z"
         style="font-size:2.11666656px;stroke-width:0.26458332"
         id="path888"
         inkscape:connector-curvature="0" />
      <path
         d="m 16.439268,274.41824 v 0.32866 h 0.391707 v 0.14779 h -0.391707 v 0.62839 q 0,0.14159 0.03824,0.1819 0.03927,0.0403 0.15813,0.0403 h 0.195336 v 0.15916 h -0.195336 q -0.220142,0 -0.303858,-0.0817 -0.08372,-0.0827 -0.08372,-0.29972 v -0.62839 h -0.139526 v -0.14779 h 0.139526 v -0.32866 z"
         style="font-size:2.11666656px;stroke-width:0.26458332"
         id="path890"
         inkscape:connector-curvature="0" />
    </g>
    <g
       aria-label="Output"
       style="font-style:normal;font-weight:normal;font-size:3.52777767px;line-height:1.25;font-family:sans-serif;letter-spacing:0px;word-spacing:0px;fill:#000000;fill-opacity:1;stroke:none;stroke-width:0.26458332"
       id="text862"
       transform="translate(0,-3.7041668)">
      <path
         d="m 9.3231962,282.9291 q -0.2273763,0 -0.361735,0.1695 -0.1333252,0.1695 -0.1333252,0.46199 0,0.29145 0.1333252,0.46095 0.1343587,0.1695 0.361735,0.1695 0.2273763,0 0.3596679,-0.1695 0.1333252,-0.1695 0.1333252,-0.46095 0,-0.29249 -0.1333252,-0.46199 -0.1322916,-0.1695 -0.3596679,-0.1695 z m 0,-0.1695 q 0.324528,0 0.5188313,0.21808 0.1943035,0.21704 0.1943035,0.58291 0,0.36483 -0.1943035,0.58291 -0.1943033,0.21704 -0.5188313,0.21704 -0.3255615,0 -0.5208984,-0.21704 -0.1943034,-0.21704 -0.1943034,-0.58291 0,-0.36587 0.1943034,-0.58291 0.1953369,-0.21808 0.5208984,-0.21808 z"
         style="font-size:2.11666656px;stroke-width:0.26458332"
         id="path867"
         inkscape:connector-curvature="0" />
      <path
         d="m 10.335021,283.87375 v -0.70074 h 0.190169 v 0.6935 q 0,0.16433 0.06408,0.24702 0.06408,0.0816 0.192236,0.0816 0.153996,0 0.242879,-0.0982 0.08992,-0.0982 0.08992,-0.26768 v -0.6563 h 0.190169 v 1.15756 h -0.190169 v -0.17777 q -0.06925,0.10542 -0.16123,0.1571 -0.09095,0.0506 -0.211874,0.0506 -0.199471,0 -0.302824,-0.12402 -0.103352,-0.12403 -0.103352,-0.36277 z"
         style="font-size:2.11666656px;stroke-width:0.26458332"
         id="path869"
         inkscape:connector-curvature="0" />
      <path
         d="m 11.886347,282.84435 v 0.32866 h 0.391707 v 0.1478 h -0.391707 v 0.62838 q 0,0.1416 0.03824,0.18191 0.03927,0.0403 0.158129,0.0403 h 0.195337 v 0.15917 h -0.195337 q -0.220141,0 -0.303857,-0.0817 -0.08372,-0.0827 -0.08372,-0.29973 v -0.62838 h -0.139526 v -0.1478 h 0.139526 v -0.32866 z"
         style="font-size:2.11666656px;stroke-width:0.26458332"
         id="path871"
         inkscape:connector-curvature="0" />
      <path
         d="m 12.71317,284.15693 v 0.61392 h -0.191203 v -1.59784 h 0.191203 v 0.1757 q 0.05995,-0.10335 0.150895,-0.15296 0.09198,-0.0506 0.219108,-0.0506 0.21084,0 0.342098,0.16743 0.132292,0.16743 0.132292,0.44028 0,0.27286 -0.132292,0.44029 -0.131258,0.16743 -0.342098,0.16743 -0.127124,0 -0.219108,-0.0496 -0.09095,-0.0506 -0.150895,-0.154 z m 0.646989,-0.40411 q 0,-0.2098 -0.08682,-0.32866 -0.08578,-0.11989 -0.236678,-0.11989 -0.150895,0 -0.237711,0.11989 -0.08578,0.11886 -0.08578,0.32866 0,0.20981 0.08578,0.3297 0.08682,0.11886 0.237711,0.11886 0.150895,0 0.236678,-0.11886 0.08682,-0.11989 0.08682,-0.3297 z"
         style="font-size:2.11666656px;stroke-width:0.26458332"
         id="path873"
         inkscape:connector-curvature="0" />
      <path
         d="m 13.853152,283.87375 v -0.70074 h 0.190169 v 0.6935 q 0,0.16433 0.06408,0.24702 0.06408,0.0816 0.192236,0.0816 0.153996,0 0.242879,-0.0982 0.08992,-0.0982 0.08992,-0.26768 v -0.6563 h 0.19017 v 1.15756 h -0.19017 v -0.17777 q -0.06925,0.10542 -0.16123,0.1571 -0.09095,0.0506 -0.211873,0.0506 -0.199471,0 -0.302824,-0.12402 -0.103353,-0.12403 -0.103353,-0.36277 z"
         style="font-size:2.11666656px;stroke-width:0.26458332"
         id="path875"
         inkscape:connector-curvature="0" />
      <path
         d="m 15.404479,282.84435 v 0.32866 h 0.391707 v 0.1478 h -0.391707 v 0.62838 q 0,0.1416 0.03824,0.18191 0.03927,0.0403 0.15813,0.0403 h 0.195337 v 0.15917 h -0.195337 q -0.220142,0 -0.303857,-0.0817 -0.08372,-0.0827 -0.08372,-0.29973 v -0.62838 h -0.139527 v -0.1478 h 0.139527 v -0.32866 z"
         style="font-size:2.11666656px;stroke-width:0.26458332"
         id="path879"
         inkscape:connector-curvature="0" />
    </g>
    <g
       aria-label="Pitch"
       style="font-style:normal;font-weight:normal;font-size:3.52777767px;line-height:1.25;font-family:sans-serif;letter-spacing:0px;word-spacing:0px;fill:#000000;fill-opacity:1;stroke:none;stroke-width:0.26458332"
       id="text865"
       transform="translate(-0.52916667,5.8208336)">
      <path
         d="m 10.577602,261.67581 v 0.57981 h 0.262516 q 0.145728,0 0.225309,-0.0755 0.07958,-0.0754 0.07958,-0.21497 0,-0.1385 -0.07958,-0.21394 -0.07958,-0.0754 -0.225309,-0.0754 z m -0.208773,-0.17157 h 0.471289 q 0.259416,0 0.391708,0.11783 0.133325,0.11679 0.133325,0.34313 0,0.22841 -0.133325,0.3452 -0.132292,0.11679 -0.391708,0.11679 h -0.262516 v 0.62011 h -0.208773 z"
         style="font-size:2.11666656px;stroke-width:0.26458332"
         id="path861"
         inkscape:connector-curvature="0" />
      <path
         d="m 11.594594,261.88975 h 0.190169 v 1.15755 h -0.190169 z m 0,-0.45062 h 0.190169 v 0.24081 h -0.190169 z"
         style="font-size:2.11666656px;stroke-width:0.26458332"
         id="path863"
         inkscape:connector-curvature="0" />
      <path
         d="m 12.371808,261.56109 v 0.32866 h 0.391707 v 0.14779 h -0.391707 v 0.62839 q 0,0.14159 0.03824,0.1819 0.03927,0.0403 0.15813,0.0403 h 0.195337 v 0.15916 h -0.195337 q -0.220142,0 -0.303857,-0.0817 -0.08372,-0.0827 -0.08372,-0.29972 v -0.62839 h -0.139527 v -0.14779 h 0.139527 v -0.32866 z"
         style="font-size:2.11666656px;stroke-width:0.26458332"
         id="path865"
         inkscape:connector-curvature="0" />
      <path
         d="m 13.847686,261.93419 v 0.17777 q -0.08061,-0.0444 -0.162264,-0.0661 -0.08062,-0.0227 -0.163297,-0.0227 -0.185002,0 -0.287321,0.11782 -0.102319,0.11679 -0.102319,0.32866 0,0.21187 0.102319,0.3297 0.102319,0.11678 0.287321,0.11678 0.08268,0 0.163297,-0.0217 0.08165,-0.0227 0.162264,-0.0672 v 0.1757 q -0.07958,0.0372 -0.165364,0.0558 -0.08475,0.0186 -0.180868,0.0186 -0.261482,0 -0.415478,-0.16433 -0.153996,-0.16433 -0.153996,-0.44338 0,-0.28319 0.155029,-0.44545 0.156063,-0.16227 0.426848,-0.16227 0.08785,0 0.171565,0.0186 0.08372,0.0176 0.162264,0.0537 z"
         style="font-size:2.11666656px;stroke-width:0.26458332"
         id="path881"
         inkscape:connector-curvature="0" />
      <path
         d="m 15.142698,262.34864 v 0.69866 h -0.19017 v -0.69246 q 0,-0.16433 -0.06408,-0.24598 -0.06408,-0.0816 -0.192236,-0.0816 -0.153996,0 -0.242879,0.0982 -0.08888,0.0982 -0.08888,0.26769 v 0.65422 h -0.191202 v -1.60817 h 0.191202 v 0.63045 q 0.06821,-0.10438 0.160197,-0.15606 0.09302,-0.0517 0.213941,-0.0517 0.199471,0 0.30179,0.12403 0.10232,0.12299 0.10232,0.36277 z"
         style="font-size:2.11666656px;stroke-width:0.26458332"
         id="path883"
         inkscape:connector-curvature="0" />
    </g>
    <g
       aria-label="Breakpoint"
       style="font-style:normal;font-weight:normal;font-size:3.52777767px;line-height:1.25;font-family:sans-serif;letter-spacing:0px;word-spacing:0px;fill:#000000;fill-opacity:1;stroke:none;stroke-width:0.26458332"
       id="text866">
      <path
         d="m 6.5530915,219.23668 v 0.56534 h 0.3348633 q 0.1684652,0 0.2490804,-0.0693 0.081649,-0.0703 0.081649,-0.21394 0,-0.14469 -0.081649,-0.2129 -0.080615,-0.0692 -0.2490804,-0.0692 z m 0,-0.63459 v 0.46509 h 0.3090251 q 0.1529622,0 0.2273763,-0.0568 0.075448,-0.0579 0.075448,-0.1757 0,-0.11679 -0.075448,-0.17467 -0.074414,-0.0579 -0.2273763,-0.0579 z m -0.2087727,-0.17156 h 0.5333007 q 0.2387451,0 0.3679362,0.0992 0.1291911,0.0992 0.1291911,0.28215 0,0.14159 -0.066146,0.22531 -0.066146,0.0837 -0.1943033,0.10439 0.1539957,0.0331 0.2387451,0.13849 0.085783,0.10439 0.085783,0.26148 0,0.20671 -0.1405598,0.31936 -0.1405599,0.11266 -0.3999756,0.11266 H 6.3443188 Z"
         style="font-size:2.11666656px;stroke-width:0.26458332"
         id="path885"
         inkscape:connector-curvature="0" />
      <path
         d="m 8.4578847,218.9938 q -0.032039,-0.0186 -0.07028,-0.0269 -0.037207,-0.009 -0.082682,-0.009 -0.1612305,0 -0.2480469,0.10542 -0.085783,0.10438 -0.085783,0.30076 v 0.60978 H 7.77989 v -1.15755 h 0.1912027 v 0.17983 q 0.059945,-0.10542 0.1560629,-0.15606 0.096118,-0.0517 0.2335774,-0.0517 0.019637,0 0.043408,0.003 0.023771,0.002 0.05271,0.007 z"
         style="font-size:2.11666656px;stroke-width:0.26458332"
         id="path887"
         inkscape:connector-curvature="0" />
      <path
         d="m 9.6061349,219.34727 v 0.093 H 8.7317697 q 0.012402,0.19637 0.1178223,0.29972 0.1064534,0.10232 0.2955891,0.10232 0.1095541,0 0.2118734,-0.0269 0.1033529,-0.0269 0.2046387,-0.0806 v 0.17984 q -0.1023194,0.0434 -0.2098063,0.0661 -0.107487,0.0227 -0.2180746,0.0227 -0.2769856,0 -0.4392496,-0.16123 -0.1612305,-0.16123 -0.1612305,-0.43615 0,-0.28422 0.1529622,-0.45062 0.1539958,-0.16743 0.414445,-0.16743 0.2335775,0 0.3689697,0.15089 0.1364258,0.14987 0.1364258,0.40825 z m -0.1901693,-0.0558 q -0.00207,-0.15606 -0.08785,-0.24908 -0.084749,-0.093 -0.2253092,-0.093 -0.1591634,0 -0.2552816,0.0899 -0.095085,0.0899 -0.109554,0.25321 z"
         style="font-size:2.11666656px;stroke-width:0.26458332"
         id="path889"
         inkscape:connector-curvature="0" />
      <path
         d="m 10.446394,219.39171 q -0.230477,0 -0.319361,0.0527 -0.08888,0.0527 -0.08888,0.17983 0,0.10129 0.06615,0.16123 0.06718,0.0589 0.181901,0.0589 0.15813,0 0.253214,-0.11163 0.09612,-0.11265 0.09612,-0.29868 v -0.0424 z m 0.379305,-0.0785 v 0.66043 h -0.19017 v -0.1757 q -0.06511,0.10542 -0.162264,0.15606 -0.09715,0.0496 -0.237711,0.0496 -0.177767,0 -0.2831869,-0.0992 -0.1043864,-0.10025 -0.1043864,-0.26768 0,-0.19534 0.1302246,-0.29456 0.1312577,-0.0992 0.3906737,-0.0992 h 0.26665 v -0.0186 q 0,-0.13126 -0.08682,-0.20257 -0.08578,-0.0724 -0.241846,-0.0724 -0.09922,0 -0.193269,0.0238 -0.09405,0.0238 -0.180868,0.0713 v -0.1757 q 0.104386,-0.0403 0.202572,-0.0599 0.09819,-0.0207 0.191202,-0.0207 0.251148,0 0.375171,0.13022 0.124024,0.13023 0.124024,0.39481 z"
         style="font-size:2.11666656px;stroke-width:0.26458332"
         id="path891"
         inkscape:connector-curvature="0" />
      <path
         d="m 11.211205,218.36542 h 0.191203 v 0.94981 l 0.567407,-0.49919 h 0.242879 l -0.613916,0.54156 0.639754,0.61599 h -0.248047 l -0.588077,-0.56534 v 0.56534 h -0.191203 z"
         style="font-size:2.11666656px;stroke-width:0.26458332"
         id="path893"
         inkscape:connector-curvature="0" />
      <path
         d="m 12.63024,219.79995 v 0.61392 h -0.191203 v -1.59783 h 0.191203 v 0.17569 q 0.05994,-0.10335 0.150895,-0.15296 0.09198,-0.0506 0.219108,-0.0506 0.21084,0 0.342098,0.16743 0.132291,0.16743 0.132291,0.44028 0,0.27286 -0.132291,0.44029 -0.131258,0.16743 -0.342098,0.16743 -0.127124,0 -0.219108,-0.0496 -0.09095,-0.0506 -0.150895,-0.154 z m 0.646988,-0.40411 q 0,-0.2098 -0.08682,-0.32866 -0.08578,-0.11989 -0.236678,-0.11989 -0.150895,0 -0.237712,0.11989 -0.08578,0.11886 -0.08578,0.32866 0,0.20981 0.08578,0.3297 0.08682,0.11886 0.237712,0.11886 0.150895,0 0.236678,-0.11886 0.08682,-0.11989 0.08682,-0.3297 z"
         style="font-size:2.11666656px;stroke-width:0.26458332"
         id="path895"
         inkscape:connector-curvature="0" />
      <path
         d="m 14.23841,218.94936 q -0.152962,0 -0.241845,0.11989 -0.08888,0.11886 -0.08888,0.32659 0,0.20774 0.08785,0.32763 0.08888,0.11886 0.242879,0.11886 0.151929,0 0.240812,-0.11989 0.08888,-0.11989 0.08888,-0.3266 0,-0.20567 -0.08888,-0.32556 -0.08888,-0.12092 -0.240812,-0.12092 z m 0,-0.16123 q 0.248047,0 0.389641,0.16123 0.141593,0.16123 0.141593,0.44648 0,0.28422 -0.141593,0.44649 -0.141594,0.16123 -0.389641,0.16123 -0.24908,0 -0.390674,-0.16123 -0.140559,-0.16227 -0.140559,-0.44649 0,-0.28525 0.140559,-0.44648 0.141594,-0.16123 0.390674,-0.16123 z"
         style="font-size:2.11666656px;stroke-width:0.26458332"
         id="path897"
         inkscape:connector-curvature="0" />
      <path
         d="m 15.083836,218.81604 h 0.190169 v 1.15755 h -0.190169 z m 0,-0.45062 h 0.190169 v 0.24081 h -0.190169 z"
         style="font-size:2.11666656px;stroke-width:0.26458332"
         id="path899"
         inkscape:connector-curvature="0" />
      <path
         d="m 16.633096,219.27492 v 0.69867 h -0.190169 v -0.69247 q 0,-0.16433 -0.06408,-0.24598 -0.06408,-0.0817 -0.192236,-0.0817 -0.153996,0 -0.24288,0.0982 -0.08888,0.0982 -0.08888,0.26768 v 0.65423 H 15.663648 V 218.816 h 0.191203 v 0.17983 q 0.06821,-0.10439 0.160197,-0.15606 0.09302,-0.0517 0.21394,-0.0517 0.199471,0 0.301791,0.12402 0.102319,0.12299 0.102319,0.36277 z"
         style="font-size:2.11666656px;stroke-width:0.26458332"
         id="path901"
         inkscape:connector-curvature="0" />
      <path
         d="m 17.20257,218.48737 v 0.32867 h 0.391707 v 0.14779 H 17.20257 v 0.62838 q 0,0.1416 0.03824,0.18191 0.03927,0.0403 0.15813,0.0403 h 0.195337 v 0.15917 H 17.39894 q -0.220141,0 -0.303857,-0.0816 -0.08372,-0.0827 -0.08372,-0.29973 v -0.62838 h -0.139526 v -0.14779 h 0.139526 v -0.32867 z"
         style="font-size:2.11666656px;stroke-width:0.26458332"
         id="path903"
         inkscape:connector-curvature="0" />
    </g>
    <flowRoot
       xml:space="preserve"
       id="flowRoot879"
       style="fill:black;fill-opacity:1;stroke:none;font-family:sans-serif;font-style:normal;font-weight:normal;font-size:13.33333333px;line-height:1.25;letter-spacing:0px;word-spacing:0px"><flowRegion
         id="flowRegion881"><rect
           id="rect883"
           width="60.18417"
           height="20.294662"
           x="-117.56908"
           y="137.16388" /></flowRegion><flowPara
         id="flowPara885" /></flowRoot>    <flowRoot
       xml:space="preserve"
       id="flowRoot912"
       style="fill:black;fill-opacity:1;stroke:none;font-family:sans-serif;font-style:normal;font-weight:normal;font-size:13.33333333px;line-height:1.25;letter-spacing:0px;word-spacing:0px"><flowRegion
         id="flowRegion914"><rect
           id="rect916"
           width="58.084721"
           height="17.495398"
           x="-163.75693"
           y="68.581917" /></flowRegion><flowPara
         id="flowPara918" /></flowRoot>    <flowRoot
       xml:space="preserve"
       id="flowRoot897"
       style="fill:black;fill-opacity:1;stroke:none;font-family:sans-serif;font-style:normal;font-weight:normal;font-size:13.33333333px;line-height:1.25;letter-spacing:0px;word-spacing:0px"><flowRegion
         id="flowRegion899"><rect
           id="rect901"
           width="39.18969"
           height="14.696135"
           x="-111.27073"
           y="144.86185" /></flowRegion><flowPara
         id="flowPara903" /></flowRoot>    <g
       aria-label="Rise"
       style="font-style:normal;font-weight:normal;font-size:3.52777767px;line-height:1.25;font-family:sans-serif;letter-spacing:0px;word-spacing:0px;fill:#000000;fill-opacity:1;stroke:none;stroke-width:0.26458332"
       id="text928"
       transform="translate(1.0583333,-4.2333335)">
      <path
         d="m 3.9283438,234.80352 q 0.067179,0.0227 0.1302246,0.0971 0.064079,0.0744 0.1281576,0.20464 l 0.2118733,0.42168 H 4.1743236 L 3.9769197,235.1311 q -0.076481,-0.15503 -0.1488282,-0.20567 -0.071313,-0.0506 -0.1953369,-0.0506 H 3.4053784 v 0.65215 H 3.1966056 v -1.54306 h 0.471289 q 0.2645833,0 0.3948079,0.11059 0.1302246,0.11059 0.1302246,0.33383 0,0.14573 -0.068213,0.24185 -0.067179,0.0961 -0.1963705,0.13332 z M 3.4053784,234.1555 v 0.54777 h 0.2625162 q 0.1508952,0 0.2273763,-0.0693 0.077515,-0.0703 0.077515,-0.20567 0,-0.13539 -0.077515,-0.2036 -0.076481,-0.0693 -0.2273763,-0.0693 z"
         style="font-size:2.11666656px;stroke-width:0.26458332"
         id="path892"
         inkscape:connector-curvature="0" />
      <path
         d="m 4.660082,234.36944 h 0.1901693 v 1.15755 H 4.660082 Z m 0,-0.45062 h 0.1901693 v 0.24081 H 4.660082 Z"
         style="font-size:2.11666656px;stroke-width:0.26458332"
         id="path894"
         inkscape:connector-curvature="0" />
      <path
         d="m 5.9850655,234.40355 v 0.17983 q -0.080615,-0.0413 -0.1674316,-0.062 -0.086816,-0.0207 -0.179834,-0.0207 -0.1415934,0 -0.2129069,0.0434 -0.07028,0.0434 -0.07028,0.13022 0,0.0661 0.050643,0.10439 0.050643,0.0372 0.2036051,0.0713 l 0.065112,0.0145 q 0.2025716,0.0434 0.287321,0.12299 0.085783,0.0785 0.085783,0.22014 0,0.16123 -0.1281576,0.25528 -0.127124,0.0941 -0.3503662,0.0941 -0.093018,0 -0.1943034,-0.0186 -0.1002522,-0.0176 -0.2118733,-0.0537 v -0.19637 q 0.1054199,0.0548 0.2077392,0.0827 0.1023194,0.0269 0.2025716,0.0269 0.1343587,0 0.2067057,-0.0455 0.072347,-0.0465 0.072347,-0.13023 0,-0.0775 -0.05271,-0.11885 -0.051676,-0.0413 -0.2284098,-0.0796 l -0.066146,-0.0155 q -0.1767333,-0.0372 -0.2552815,-0.11369 -0.078548,-0.0775 -0.078548,-0.21187 0,-0.1633 0.1157552,-0.25218 0.1157552,-0.0889 0.3286621,-0.0889 0.1054199,0 0.1984375,0.0155 0.093018,0.0155 0.1715657,0.0465 z"
         style="font-size:2.11666656px;stroke-width:0.26458332"
         id="path896"
         inkscape:connector-curvature="0" />
      <path
         d="m 7.3410552,234.90067 v 0.093 H 6.46669 q 0.012402,0.19637 0.1178222,0.29973 0.1064535,0.10231 0.2955892,0.10231 0.109554,0 0.2118734,-0.0269 0.1033528,-0.0269 0.2046386,-0.0806 v 0.17983 q -0.1023193,0.0434 -0.2098063,0.0662 -0.107487,0.0227 -0.2180745,0.0227 -0.2769857,0 -0.4392497,-0.16124 -0.1612304,-0.16123 -0.1612304,-0.43614 0,-0.28422 0.1529622,-0.45062 0.1539958,-0.16743 0.414445,-0.16743 0.2335774,0 0.3689697,0.15089 0.1364258,0.14986 0.1364258,0.40824 z m -0.1901693,-0.0558 q -0.00207,-0.15606 -0.08785,-0.24908 -0.084749,-0.093 -0.2253093,-0.093 -0.1591634,0 -0.2552815,0.0899 -0.095085,0.0899 -0.1095541,0.25322 z"
         style="font-size:2.11666656px;stroke-width:0.26458332"
         id="path898"
         inkscape:connector-curvature="0" />
    </g>
    <g
       aria-label="Fall"
       style="font-style:normal;font-weight:normal;font-size:3.52777767px;line-height:1.25;font-family:sans-serif;letter-spacing:0px;word-spacing:0px;fill:#000000;fill-opacity:1;stroke:none;stroke-width:0.26458332"
       id="text932"
       transform="translate(-0.52916667,-4.2333335)">
      <path
         d="m 16.949765,233.98393 h 0.886767 v 0.1757 h -0.677995 v 0.45476 h 0.611849 v 0.1757 h -0.611849 v 0.7369 h -0.208772 z"
         style="font-size:2.11666656px;stroke-width:0.26458332"
         id="path902"
         inkscape:connector-curvature="0" />
      <path
         d="m 18.49489,234.94512 q -0.230477,0 -0.31936,0.0527 -0.08888,0.0527 -0.08888,0.17983 0,0.10129 0.06615,0.16123 0.06718,0.0589 0.181901,0.0589 0.15813,0 0.253214,-0.11162 0.09612,-0.11265 0.09612,-0.29869 v -0.0424 z m 0.379305,-0.0786 v 0.66042 h -0.190169 v -0.1757 q -0.06511,0.10542 -0.162264,0.15607 -0.09715,0.0496 -0.237712,0.0496 -0.177767,0 -0.283187,-0.0992 -0.104386,-0.10026 -0.104386,-0.26769 0,-0.19533 0.130224,-0.29455 0.131259,-0.0992 0.390674,-0.0992 h 0.266651 v -0.0186 q 0,-0.13125 -0.08682,-0.20257 -0.08578,-0.0723 -0.241845,-0.0723 -0.09922,0 -0.19327,0.0238 -0.09405,0.0238 -0.180868,0.0713 v -0.1757 q 0.104387,-0.0403 0.202572,-0.0599 0.09819,-0.0207 0.191203,-0.0207 0.251147,0 0.37517,0.13022 0.124024,0.13022 0.124024,0.39481 z"
         style="font-size:2.11666656px;stroke-width:0.26458332"
         id="path904"
         inkscape:connector-curvature="0" />
      <path
         d="m 19.269003,233.91882 h 0.190169 v 1.60817 h -0.190169 z"
         style="font-size:2.11666656px;stroke-width:0.26458332"
         id="path906"
         inkscape:connector-curvature="0" />
      <path
         d="m 19.856047,233.91882 h 0.190169 v 1.60817 h -0.190169 z"
         style="font-size:2.11666656px;stroke-width:0.26458332"
         id="path908"
         inkscape:connector-curvature="0" />
    </g>
    <g
       aria-label="Sin/Tri"
       style="font-style:normal;font-weight:normal;font-size:3.52777767px;line-height:1.25;font-family:sans-serif;letter-spacing:0px;word-spacing:0px;fill:#000000;fill-opacity:1;stroke:none;stroke-width:0.26458332"
       id="text899"
       transform="translate(-0.52916667,-4.7625002)">
      <path
         d="m 10.212816,246.01849 v 0.20361 q -0.118856,-0.0568 -0.2242758,-0.0848 -0.1054199,-0.0279 -0.2036051,-0.0279 -0.1705322,0 -0.2635498,0.0661 -0.091984,0.0661 -0.091984,0.1881 0,0.10232 0.060978,0.15503 0.062012,0.0517 0.2335775,0.0837 l 0.1260905,0.0258 q 0.2335777,0.0444 0.3441647,0.15709 0.111621,0.11162 0.111621,0.29973 0,0.22427 -0.150895,0.34003 -0.149861,0.11575 -0.440283,0.11575 -0.109554,0 -0.2335774,-0.0248 -0.1229899,-0.0248 -0.2552816,-0.0734 v -0.21498 q 0.127124,0.0713 0.2490804,0.10749 0.1219564,0.0362 0.2397786,0.0362 0.1788005,0 0.2759522,-0.0703 0.097152,-0.0703 0.097152,-0.2005 0,-0.11369 -0.07028,-0.17777 -0.069246,-0.0641 -0.2284074,-0.0961 l -0.127124,-0.0248 q -0.2335775,-0.0465 -0.3379639,-0.14573 -0.1043864,-0.0992 -0.1043864,-0.27595 0,-0.20464 0.1436605,-0.32246 0.144694,-0.11782 0.3979085,-0.11782 0.1085205,0 0.2211751,0.0196 0.1126526,0.0196 0.2304746,0.0589 z"
         style="font-size:2.11666656px;stroke-width:0.26458332"
         id="path905"
         inkscape:connector-curvature="0" />
      <path
         d="m 10.623127,246.35336 h 0.190169 v 1.15755 h -0.190169 z m 0,-0.45062 h 0.190169 v 0.24081 h -0.190169 z"
         style="font-size:2.11666656px;stroke-width:0.26458332"
         id="path907"
         inkscape:connector-curvature="0" />
      <path
         d="m 12.172386,246.81224 v 0.69867 h -0.190169 v -0.69246 q 0,-0.16434 -0.06408,-0.24598 -0.06408,-0.0816 -0.192236,-0.0816 -0.153996,0 -0.242879,0.0982 -0.08888,0.0982 -0.08888,0.26769 v 0.65422 h -0.191203 v -1.15755 h 0.191203 v 0.17983 q 0.06821,-0.10438 0.160197,-0.15606 0.09302,-0.0517 0.21394,-0.0517 0.199471,0 0.301791,0.12403 0.102319,0.12299 0.102319,0.36276 z"
         style="font-size:2.11666656px;stroke-width:0.26458332"
         id="path909"
         inkscape:connector-curvature="0" />
      <path
         d="m 12.891722,245.96785 h 0.1757 l -0.537435,1.73943 h -0.1757 z"
         style="font-size:2.11666656px;stroke-width:0.26458332"
         id="path911"
         inkscape:connector-curvature="0" />
      <path
         d="m 13.063288,245.96785 h 1.305346 v 0.1757 h -0.54777 v 1.36736 h -0.209806 v -1.36736 h -0.54777 z"
         style="font-size:2.11666656px;stroke-width:0.26458332"
         id="path913"
         inkscape:connector-curvature="0" />
      <path
         d="m 14.925706,246.53112 q -0.03204,-0.0186 -0.07028,-0.0269 -0.03721,-0.009 -0.08268,-0.009 -0.16123,0 -0.248047,0.10542 -0.08578,0.10439 -0.08578,0.30076 v 0.60978 h -0.191202 v -1.15755 h 0.191202 v 0.17983 q 0.05994,-0.10542 0.156063,-0.15606 0.09612,-0.0517 0.233578,-0.0517 0.01964,0 0.04341,0.003 0.02377,0.002 0.05271,0.007 z"
         style="font-size:2.11666656px;stroke-width:0.26458332"
         id="path915"
         inkscape:connector-curvature="0" />
      <path
         d="m 15.129312,246.35336 h 0.190169 v 1.15755 h -0.190169 z m 0,-0.45062 h 0.190169 v 0.24081 h -0.190169 z"
         style="font-size:2.11666656px;stroke-width:0.26458332"
         id="path917"
         inkscape:connector-curvature="0" />
    </g>
    <g
       aria-label="Phase"
       style="font-style:normal;font-weight:normal;font-size:3.52777767px;line-height:1.25;font-family:sans-serif;letter-spacing:0px;word-spacing:0px;fill:#000000;fill-opacity:1;stroke:none;stroke-width:0.26458332"
       id="text907"
       transform="translate(0,1.5875)">
      <path
         d="m 9.0314927,252.70633 v 0.57981 H 9.294009 q 0.1457275,0 0.2253092,-0.0754 0.079582,-0.0754 0.079582,-0.21497 0,-0.1385 -0.079582,-0.21395 -0.079582,-0.0754 -0.2253092,-0.0754 z M 8.8227199,252.53476 H 9.294009 q 0.2594157,0 0.3917073,0.11782 0.1333252,0.11679 0.1333252,0.34314 0,0.22841 -0.1333252,0.34519 -0.1322916,0.11679 -0.3917073,0.11679 H 9.0314927 v 0.62012 H 8.8227199 Z"
         style="font-size:2.11666656px;stroke-width:0.26458332"
         id="path910"
         inkscape:connector-curvature="0" />
      <path
         d="m 11.054108,253.37915 v 0.69867 h -0.190169 v -0.69246 q 0,-0.16434 -0.06408,-0.24598 -0.06408,-0.0816 -0.192236,-0.0816 -0.153996,0 -0.242879,0.0982 -0.08888,0.0982 -0.08888,0.26769 v 0.65422 h -0.191203 v -1.60817 h 0.191203 v 0.63045 q 0.06821,-0.10438 0.160197,-0.15606 0.09302,-0.0517 0.213941,-0.0517 0.199471,0 0.30179,0.12403 0.102319,0.12299 0.102319,0.36276 z"
         style="font-size:2.11666656px;stroke-width:0.26458332"
         id="path912"
         inkscape:connector-curvature="0" />
      <path
         d="m 11.961546,253.49594 q -0.230477,0 -0.31936,0.0527 -0.08888,0.0527 -0.08888,0.17984 0,0.10128 0.06615,0.16123 0.06718,0.0589 0.181901,0.0589 0.15813,0 0.253215,-0.11162 0.09612,-0.11266 0.09612,-0.29869 v -0.0424 z m 0.379305,-0.0785 v 0.66042 h -0.190169 v -0.1757 q -0.06511,0.10542 -0.162264,0.15606 -0.09715,0.0496 -0.237712,0.0496 -0.177767,0 -0.283186,-0.0992 -0.104387,-0.10025 -0.104387,-0.26768 0,-0.19534 0.130225,-0.29456 0.131258,-0.0992 0.390674,-0.0992 h 0.26665 v -0.0186 q 0,-0.13126 -0.08682,-0.20257 -0.08578,-0.0724 -0.241846,-0.0724 -0.09922,0 -0.19327,0.0238 -0.09405,0.0238 -0.180868,0.0713 v -0.1757 q 0.104387,-0.0403 0.202572,-0.06 0.09819,-0.0207 0.191203,-0.0207 0.251147,0 0.375171,0.13023 0.124023,0.13022 0.124023,0.39481 z"
         style="font-size:2.11666656px;stroke-width:0.26458332"
         id="path914"
         inkscape:connector-curvature="0" />
      <path
         d="m 13.471531,252.95437 v 0.17984 q -0.08061,-0.0413 -0.167431,-0.062 -0.08682,-0.0207 -0.179834,-0.0207 -0.141594,0 -0.212907,0.0434 -0.07028,0.0434 -0.07028,0.13023 0,0.0661 0.05064,0.10439 0.05064,0.0372 0.203605,0.0713 l 0.06511,0.0145 q 0.202572,0.0434 0.287321,0.12299 0.08578,0.0786 0.08578,0.22014 0,0.16123 -0.128157,0.25528 -0.127124,0.094 -0.350367,0.094 -0.09302,0 -0.194303,-0.0186 -0.100252,-0.0176 -0.211873,-0.0537 v -0.19638 q 0.10542,0.0548 0.207739,0.0827 0.102319,0.0269 0.202572,0.0269 0.134358,0 0.206705,-0.0455 0.07235,-0.0465 0.07235,-0.13022 0,-0.0775 -0.05271,-0.11886 -0.05168,-0.0413 -0.228409,-0.0796 l -0.06615,-0.0155 q -0.176734,-0.0372 -0.255282,-0.11369 -0.07855,-0.0775 -0.07855,-0.21187 0,-0.1633 0.115755,-0.25218 0.115755,-0.0889 0.328662,-0.0889 0.10542,0 0.198438,0.0155 0.09302,0.0155 0.171565,0.0465 z"
         style="font-size:2.11666656px;stroke-width:0.26458332"
         id="path916"
         inkscape:connector-curvature="0" />
      <path
         d="m 14.827521,253.4515 v 0.093 h -0.874365 q 0.0124,0.19637 0.117822,0.29972 0.106454,0.10232 0.29559,0.10232 0.109554,0 0.211873,-0.0269 0.103353,-0.0269 0.204639,-0.0806 v 0.17984 q -0.10232,0.0434 -0.209807,0.0661 -0.107487,0.0227 -0.218074,0.0227 -0.276986,0 -0.43925,-0.16123 -0.16123,-0.16123 -0.16123,-0.43615 0,-0.28422 0.152962,-0.45062 0.153996,-0.16743 0.414445,-0.16743 0.233577,0 0.36897,0.1509 0.136425,0.14986 0.136425,0.40824 z m -0.190169,-0.0558 q -0.0021,-0.15606 -0.08785,-0.24908 -0.08475,-0.093 -0.225309,-0.093 -0.159164,0 -0.255282,0.0899 -0.09508,0.0899 -0.109554,0.25321 z"
         style="font-size:2.11666656px;stroke-width:0.26458332"
         id="path918"
         inkscape:connector-curvature="0" />
    </g>
  </g>
</svg>
